<svg width="846" height="594" viewBox="0 0 846 594" fill="none" xmlns="http://www.w3.org/2000/svg">
<g clip-path="url(#clip0_177_18)">
<rect width="846" height="594" fill="#3A3A3A"/>
<mask id="mask0_177_18" style="mask-type:luminance" maskUnits="userSpaceOnUse" x="0" y="0" width="846" height="594">
<path d="M846 0H0V594H846V0Z" fill="white"/>
</mask>
<g mask="url(#mask0_177_18)">
<g filter="url(#filter0_f_177_18)">
<path fill-rule="evenodd" clip-rule="evenodd" d="M96 19L670 405.9L343.816 501L96 19Z" fill="url(#paint0_linear_177_18)"/>
</g>
<g filter="url(#filter1_f_177_18)">
<path fill-rule="evenodd" clip-rule="evenodd" d="M176 -42L750 344.9L423.816 440L176 -42Z" fill="url(#paint1_linear_177_18)"/>
</g>
<mask id="mask1_177_18" style="mask-type:luminance" maskUnits="userSpaceOnUse" x="96" y="-42" width="654" height="543">
<path fill-rule="evenodd" clip-rule="evenodd" d="M750 344.9L176 -42L266.423 133.872L96 19L343.816 501L670 405.9L630.982 379.6L750 344.9Z" fill="white"/>
</mask>
<g mask="url(#mask1_177_18)">
<path fill-rule="evenodd" clip-rule="evenodd" d="M575.652 131.95C447.946 239.436 276.732 298.518 93.158 298.518C91.916 298.518 90.671 298.515 89.426 298.509C8.98199 298.158 -69.032 286.482 -142 264.423V270.576C-68.972 292.455 9.006 304.068 89.4 304.416L90.48 304.419L90.828 304.42L91.418 304.421L93.158 304.422C278.223 304.422 450.916 244.812 579.744 136.381C723.259 15.588 800.94 -156.595 805.221 -362H799.029C794.758 -158.341 717.799 12.306 575.652 131.95ZM92.987 -36.318C91.817 -36.318 90.62 -36.324 89.447 -36.333C2.03098 -37.083 -79.553 -64.385 -142 -113.441V-105.866C-78.986 -57.861 2.37 -31.17 89.393 -30.423C90.647 -30.411 91.901 -30.405 93.155 -30.405C186.496 -30.405 273.645 -60.353 338.904 -114.941C410.588 -174.898 450.325 -260.142 454.495 -361.997H448.282C439.112 -137.954 259.995 -36.318 92.987 -36.318ZM92.99 -16.62C91.817 -16.62 90.632 -16.626 89.456 -16.635C3.13 -17.337 -77.837 -42.513 -142 -88.04V-80.738C-77.384 -36.093 3.40198 -11.424 89.408 -10.728C90.659 -10.716 91.904 -10.713 93.155 -10.713C191.896 -10.713 284.082 -42.411 353.078 -100.166C428.984 -163.696 470.95 -254.058 475.132 -361.997H468.919C459.718 -124.43 269.919 -16.62 92.99 -16.62ZM89.468 3.06C90.635 3.069 91.823 3.07501 92.99 3.07501C279.852 3.07501 480.331 -110.9 489.55 -361.997H495.763C491.569 -247.968 447.376 -152.497 367.256 -85.388C294.516 -24.462 197.293 8.98499 93.156 8.98499C91.907 8.98499 90.671 8.982 89.423 8.97C4.257 8.316 -76.094 -14.598 -142 -56.36V-63.563C-76.45 -21.021 4.011 2.406 89.468 3.06ZM92.99 22.77C91.823 22.77 90.644 22.764 89.477 22.755C4.73998 22.14 -75.313 0.207016 -142 -39.753V-32.769C-75.01 6.52498 4.93198 28.05 89.43 28.665C90.677 28.674 91.91 28.68 93.155 28.68C202.696 28.68 304.95 -6.51302 381.431 -70.613C465.772 -141.299 512.191 -241.881 516.397 -361.997H510.184C500.947 -97.37 289.779 22.77 92.99 22.77ZM89.486 42.452C90.644 42.462 91.838 42.464 92.996 42.464C299.709 42.464 521.562 -83.837 530.814 -361.997H537.027C532.812 -235.794 484.165 -130.1 395.606 -55.832C315.384 11.436 208.096 48.374 93.156 48.374C91.913 48.374 90.686 48.371 89.441 48.362C5.52102 47.78 -74.108 27.506 -142 -9.60599V-16.392C-74.369 21.297 5.37299 41.873 89.486 42.452ZM405.69 -45.492C322.008 24.714 209.575 62.85 89.486 62.15C5.90398 61.598 -73.564 42.185 -142 6.504V13.293C-73.355 48.449 6.048 67.508 89.444 68.06C90.686 68.07 91.914 68.072 93.155 68.072C213.493 68.072 325.815 29.388 409.775 -41.052C502.564 -118.898 553.44 -229.705 557.661 -361.997H551.469C547.263 -231.463 497.11 -122.192 405.689 -45.492H405.69ZM89.492 81.845C214.972 82.538 332.439 42.665 419.861 -30.711C515.503 -110.987 567.882 -225.373 572.097 -361.997H578.289C574.062 -223.618 520.956 -107.696 423.944 -26.274C336.246 47.336 218.884 87.766 93.152 87.766C91.913 87.766 90.695 87.764 89.45 87.755C6.465 87.233 -72.686 69.065 -142 35.618V29C-72.875 62.903 6.354 81.323 89.492 81.846V81.845ZM434.026 -15.927C342.87 60.617 220.441 102.335 89.492 101.543C6.76 101.042 -72.284 83.585 -142 51.296V57.917C-72.13 89.786 6.867 106.955 89.45 107.456H89.52C90.739 107.462 91.94 107.468 93.152 107.468C224.287 107.468 346.67 65.291 438.112 -11.484C539.346 -96.491 594.687 -217.525 598.923 -361.997H592.731C588.51 -219.283 533.895 -99.782 434.026 -15.927ZM93.152 121.253C228.187 121.253 354.14 77.858 448.192 -1.14301C552.288 -88.577 609.135 -213.19 613.362 -361.997H619.553C615.312 -211.435 557.742 -85.289 452.281 3.297C357.104 83.243 229.687 127.162 93.155 127.162C91.951 127.162 90.755 127.156 89.55 127.15H89.456C7.18198 126.673 -71.614 110.195 -142 79.724V73.25C-71.762 104.093 7.10098 120.763 89.49 121.241C90.704 121.249 91.937 121.253 93.152 121.253ZM462.361 13.641C363.725 96.521 231.211 141.742 89.492 140.935C7.40701 140.479 -71.303 124.549 -142 95.027V101.501C-71.183 130.678 7.48798 146.389 89.456 146.848C90.698 146.854 91.916 146.857 93.156 146.857C235.078 146.857 367.535 101.189 466.45 18.077C576.132 -74.08 635.936 -205.344 640.184 -361.996H633.992C629.756 -207.096 570.681 -77.368 462.361 13.642V13.641ZM93.155 160.642C238.975 160.642 374.999 113.759 476.527 28.428C589.071 -66.164 650.384 -201.004 654.623 -361.997H660.815C656.564 -199.252 594.528 -62.877 480.613 32.861C377.957 119.141 240.469 166.552 93.153 166.552C91.933 166.552 90.733 166.546 89.509 166.54H89.45C7.752 166.102 -70.793 151.06 -142 123.061V116.714C-70.91 145.018 7.69798 160.192 89.49 160.633C90.71 160.639 91.937 160.642 93.155 160.642ZM490.693 43.212C385.421 131.712 244.378 180.336 93.158 180.336C91.938 180.336 90.708 180.333 89.489 180.327C7.92599 179.905 -70.535 165.253 -142 138.043V144.394C-70.436 171.316 7.98 185.815 89.45 186.238H89.555C90.764 186.244 91.951 186.25 93.152 186.25C245.869 186.25 388.385 137.095 494.779 47.648C612.915 -51.668 677.183 -193.159 681.44 -361.997H675.248C671.006 -194.914 607.464 -54.957 490.693 43.211V43.212ZM93.155 200.034C249.766 200.034 395.843 149.664 504.853 58C625.85 -43.749 691.634 -188.818 695.885 -361.997H702.076C697.817 -187.066 631.307 -40.464 508.945 62.435C398.81 155.044 251.26 205.945 93.155 205.945C91.91 205.945 90.692 205.942 89.445 205.936C8.201 205.528 -70.134 191.641 -142 165.724V159.373C-70.217 185.557 8.14498 199.615 89.477 200.026C90.704 200.032 91.934 200.035 93.155 200.035V200.034ZM519.016 72.788C406.268 167.617 255.16 219.732 93.158 219.732C91.931 219.732 90.698 219.729 89.474 219.723C8.364 219.327 -69.94 205.894 -142 180.667V186.91C-69.857 211.899 8.40002 225.237 89.441 225.633C90.689 225.639 91.911 225.642 93.158 225.642C256.656 225.642 409.235 172.999 523.107 77.225C649.697 -29.253 718.435 -180.973 722.704 -361.997H716.512C712.255 -182.725 644.243 -32.537 519.016 72.788ZM89.459 239.421C258.181 240.219 415.832 186.295 533.175 87.578C662.63 -21.327 732.88 -176.63 737.143 -361.997H743.335C739.063 -174.88 668.087 -18.045 537.267 92.012C419.654 190.954 262.053 245.337 93.155 245.337C91.91 245.337 90.677 245.334 89.429 245.328C8.556 244.944 -69.59 231.996 -142 207.858V201.616C-69.665 225.978 8.519 239.037 89.459 239.421ZM547.338 102.368C427.112 203.527 265.95 259.122 93.158 259.122L91.217 259.12L90.304 259.118L89.521 259.116H89.456C8.67999 258.744 -69.422 246.111 -142 222.561V228.804C-69.359 252.141 8.715 264.654 89.423 265.023C90.677 265.029 91.904 265.032 93.158 265.032C267.441 265.032 430.076 208.906 551.424 106.802C686.477 -6.834 759.688 -168.784 763.963 -361.997H757.771C753.508 -170.536 681.02 -10.119 547.338 102.368ZM89.435 278.811C268.929 279.525 436.664 222.204 561.492 117.158C699.41 1.09498 774.133 -164.44 778.402 -361.997H784.594C780.316 -162.691 704.867 4.37698 565.584 121.589C440.497 226.857 272.829 284.727 93.155 284.727C91.895 284.727 90.671 284.727 89.408 284.721C8.86798 284.361 -69.161 272.331 -142 249.75V243.504C-69.215 266.286 8.832 278.451 89.435 278.811ZM93.158 318.212C282.129 318.212 458.362 257.394 589.809 146.743C736.189 23.52 815.385 -152.248 819.66 -361.997H825.852C821.568 -150.496 741.646 26.805 593.901 151.174C461.332 262.77 283.62 324.122 93.158 324.122C91.895 324.122 90.648 324.119 89.381 324.113C9.10799 323.774 -68.786 312.428 -142 291.201V285.045C-68.837 306.446 9.08702 317.864 89.411 318.206C90.656 318.209 91.916 318.212 93.158 318.212ZM603.963 161.536C468.781 275.346 287.508 337.907 93.158 337.907C91.908 337.907 90.648 337.904 89.393 337.901C9.19 337.568 -68.666 326.441 -142 305.666V311.822C-68.62 332.435 9.21 343.478 89.366 343.811C90.632 343.817 91.896 343.82 93.158 343.82C289.017 343.82 471.742 280.734 608.055 165.97C760.033 38.018 842.193 -144.401 846.48 -361.997H840.288C836.01 -146.15 754.573 34.733 603.963 161.536ZM93.158 357.605C292.911 357.605 479.191 293.307 618.116 176.332C772.963 45.95 856.635 -140.051 860.919 -361.997H867.111C862.821 -138.302 778.423 49.233 622.208 180.766C482.158 298.686 294.402 363.515 93.158 363.515C91.886 363.515 90.623 363.512 89.348 363.506C9.30998 363.179 -68.477 352.469 -142 332.441V326.285C-68.516 346.466 9.288 357.272 89.375 357.599C90.626 357.602 91.907 357.605 93.158 357.605ZM632.27 191.128C489.607 311.261 298.296 377.3 93.158 377.3C91.898 377.3 90.614 377.297 89.354 377.294C9.387 376.976 -68.384 366.524 -142 346.907V353.063C-68.348 372.536 9.411 382.885 89.33 383.203C90.611 383.21 91.877 383.21 93.158 383.21C299.79 383.21 492.577 316.64 636.362 195.559C796.81 60.449 883.448 -132.203 887.741 -361.997H881.55C877.266 -133.952 791.349 57.167 632.27 191.128ZM93.161 396.994C303.687 396.994 500.02 329.219 646.424 205.924C809.736 68.384 897.89 -127.85 902.177 -361.997H908.369C904.076 -126.107 815.196 71.666 650.513 210.354C502.99 334.595 305.178 402.904 93.161 402.904C91.868 402.904 90.599 402.904 89.306 402.898C9.507 402.586 -68.237 392.62 -142 373.679V367.523C-68.267 386.605 9.48602 396.676 89.333 396.988C90.603 396.991 91.895 396.994 93.161 396.994Z" fill="url(#paint2_linear_177_18)" fill-opacity="0.64"/>
</g>
</g>
</g>
<defs>
<filter id="filter0_f_177_18" x="3.578" y="-73.422" width="758.844" height="666.844" filterUnits="userSpaceOnUse" color-interpolation-filters="sRGB">
<feFlood flood-opacity="0" result="BackgroundImageFix"/>
<feBlend mode="normal" in="SourceGraphic" in2="BackgroundImageFix" result="shape"/>
<feGaussianBlur stdDeviation="46.211" result="effect1_foregroundBlur_177_18"/>
</filter>
<filter id="filter1_f_177_18" x="83.578" y="-134.422" width="758.844" height="666.844" filterUnits="userSpaceOnUse" color-interpolation-filters="sRGB">
<feFlood flood-opacity="0" result="BackgroundImageFix"/>
<feBlend mode="normal" in="SourceGraphic" in2="BackgroundImageFix" result="shape"/>
<feGaussianBlur stdDeviation="46.211" result="effect1_foregroundBlur_177_18"/>
</filter>
<linearGradient id="paint0_linear_177_18" x1="-16.293" y1="177.657" x2="149.25" y2="525.961" gradientUnits="userSpaceOnUse">
<stop stop-color="#FAD02C" stop-opacity="0.8"/>
<stop offset="0.382" stop-color="#FAD02C" stop-opacity="0.16"/>
<stop offset="1" stop-color="#FAD02C" stop-opacity="0"/>
</linearGradient>
<linearGradient id="paint1_linear_177_18" x1="63.707" y1="116.657" x2="229.25" y2="464.961" gradientUnits="userSpaceOnUse">
<stop stop-color="#F2D04F" stop-opacity="0.8"/>
<stop offset="0.382" stop-color="#CCB148" stop-opacity="0.32"/>
<stop offset="1" stop-color="#A38F3F" stop-opacity="0"/>
</linearGradient>
<linearGradient id="paint2_linear_177_18" x1="495" y1="-95" x2="422" y2="275" gradientUnits="userSpaceOnUse">
<stop stop-color="#FAD02C" stop-opacity="0.5"/>
<stop offset="1" stop-color="#746423" stop-opacity="0"/>
</linearGradient>
<clipPath id="clip0_177_18">
<rect width="846" height="594" fill="white"/>
</clipPath>
</defs>
</svg>
